<svg width="20" height="20" viewBox="0 0 20 20" fill="none" xmlns="http://www.w3.org/2000/svg">
<path d="M3 10.1667C3.27614 10.1667 3.5 9.94289 3.5 9.66675C3.5 9.39061 3.27614 9.16675 3 9.16675C2.72386 9.16675 2.5 9.39061 2.5 9.66675C2.5 9.94289 2.72386 10.1667 3 10.1667Z" fill="black"/>
<path d="M17.0373 9.75035C17.0372 9.75037 17.0359 9.74938 17.034 9.74731C17.0365 9.74928 17.0374 9.75032 17.0373 9.75035ZM17.034 9.58619C17.0359 9.58411 17.0372 9.58312 17.0373 9.58315C17.0374 9.58317 17.0365 9.58421 17.034 9.58619ZM6.29537 9.58315C6.2955 9.58312 6.29673 9.58411 6.29867 9.58619C6.29622 9.58421 6.29525 9.58317 6.29537 9.58315ZM6.29867 9.74731C6.29673 9.74938 6.2955 9.75037 6.29537 9.75035C6.29525 9.75032 6.29622 9.74928 6.29867 9.74731Z" fill="black" stroke="black"/>
<path d="M17.0376 13.9169C17.0375 13.9169 17.0363 13.9159 17.0343 13.9138C17.0368 13.9158 17.0378 13.9168 17.0376 13.9169ZM17.0343 13.7527C17.0363 13.7506 17.0375 13.7496 17.0376 13.7497C17.0378 13.7497 17.0368 13.7507 17.0343 13.7527ZM2.96237 13.7497C2.9625 13.7496 2.96372 13.7506 2.96566 13.7527C2.96321 13.7507 2.96224 13.7497 2.96237 13.7497ZM2.96566 13.9138C2.96372 13.9159 2.9625 13.9169 2.96237 13.9169C2.96224 13.9168 2.96321 13.9158 2.96566 13.9138Z" fill="black" stroke="black"/>
<path d="M17.0376 5.5836C17.0375 5.58362 17.0363 5.58264 17.0343 5.58056C17.0368 5.58254 17.0378 5.58357 17.0376 5.5836ZM17.0343 5.41944C17.0363 5.41736 17.0375 5.41638 17.0376 5.4164C17.0378 5.41643 17.0368 5.41746 17.0343 5.41944ZM2.96237 5.4164C2.9625 5.41638 2.96372 5.41736 2.96566 5.41944C2.96321 5.41746 2.96224 5.41643 2.96237 5.4164ZM2.96566 5.58056C2.96372 5.58264 2.9625 5.58362 2.96237 5.5836C2.96224 5.58357 2.96321 5.58254 2.96566 5.58056Z" fill="black" stroke="black"/>
</svg>
