<svg width="65" height="36" viewBox="0 0 65 36" fill="none" xmlns="http://www.w3.org/2000/svg">
<path d="M49.008 12.88V19.968C49.008 20.8107 49.2267 21.4453 49.664 21.872C50.112 22.2987 50.7307 22.512 51.52 22.512C52.32 22.512 52.9387 22.2987 53.376 21.872C53.824 21.4453 54.048 20.8107 54.048 19.968V12.88H55.872V19.936C55.872 20.8427 55.6747 21.6107 55.28 22.24C54.8853 22.8693 54.3573 23.3387 53.696 23.648C53.0347 23.9573 52.304 24.112 51.504 24.112C50.704 24.112 49.9733 23.9573 49.312 23.648C48.6613 23.3387 48.144 22.8693 47.76 22.24C47.376 21.6107 47.184 20.8427 47.184 19.936V12.88H49.008ZM60.1829 22.512H64.1829V24H58.0709V22.512L62.0869 16.672H58.0709V15.184H64.1829V16.672L60.1829 22.512Z" fill="#16161F"/>
<circle cx="18" cy="18" r="18" fill="white"/>
<g clip-path="url(#clip0_127_80)">
<path d="M1.80272 12.8261C1.28196 14.4576 0.999934 16.1956 1 17.9998C0.999934 19.8041 1.28203 21.5422 1.80279 23.1737L18 23.9129L34.1972 23.1738C34.7179 21.5423 35.0001 19.8041 35.0001 17.9999C35 16.1957 34.718 14.4576 34.1972 12.826L18 12.0869L1.80272 12.8261Z" fill="#F0F0F0"/>
<path d="M34.1974 12.8263L18.0001 12.0872L1.80287 12.8263C1.64854 13.31 1.51566 13.8032 1.4043 14.3045H34.5957C34.4845 13.8031 34.3517 13.3098 34.1974 12.8263Z" fill="#D80027"/>
<path d="M1.4043 21.6956C1.51553 22.1969 1.64841 22.6901 1.80273 23.1738L1.80433 23.1738L17.9999 23.9129L34.1971 23.1738C34.3514 22.6901 34.4843 22.1969 34.5956 21.6956H1.4043V21.6956Z" fill="#D80027"/>
<path d="M17.9999 34.9999C25.5845 34.9999 32.008 30.0325 34.1971 23.1738H1.80273C3.99182 30.0325 10.4154 34.9999 17.9999 34.9999Z" fill="#6DA544"/>
<path d="M17.9999 1C10.4154 1.00007 3.99195 5.96745 1.80273 12.8261L34.1971 12.8262C32.0081 5.96739 25.5846 0.999934 17.9999 1Z" fill="#338AF3"/>
<path d="M8.76825 8.02182C8.76825 6.4296 9.88726 5.09948 11.3816 4.77316C11.152 4.72296 10.9136 4.6958 10.6689 4.6958C8.83193 4.6958 7.34277 6.18489 7.34277 8.02189C7.34277 9.85889 8.8318 11.348 10.6689 11.348C10.9136 11.348 11.1519 11.3208 11.3816 11.2706C9.88733 10.9442 8.76825 9.61405 8.76825 8.02182Z" fill="#F0F0F0"/>
<path d="M13.3474 9.53369L13.5725 10.2266H14.3011L13.7117 10.655L13.9368 11.3479L13.3474 10.9197L12.7579 11.3479L12.983 10.655L12.3936 10.2266H13.1222L13.3474 9.53369Z" fill="#F0F0F0"/>
<path d="M15.6735 9.53369L15.8986 10.2266H16.6272L16.0378 10.655L16.2629 11.3479L15.6735 10.9197L15.084 11.3479L15.3091 10.655L14.7197 10.2266H15.4483L15.6735 9.53369Z" fill="#F0F0F0"/>
<path d="M17.9988 9.53369L18.2239 10.2266H18.9526L18.3631 10.655L18.5882 11.3479L17.9988 10.9197L17.4092 11.3479L17.6345 10.655L17.0449 10.2266H17.7736L17.9988 9.53369Z" fill="#F0F0F0"/>
<path d="M20.324 9.53369L20.5492 10.2266H21.2777L20.6883 10.655L20.9135 11.3479L20.324 10.9197L19.7344 11.3479L19.9597 10.655L19.3701 10.2266H20.0987L20.324 9.53369Z" fill="#F0F0F0"/>
<path d="M22.65 9.53369L22.8752 10.2266H23.6038L23.0144 10.655L23.2396 11.3479L22.65 10.9197L22.0605 11.3479L22.2857 10.655L21.6963 10.2266H22.4248L22.65 9.53369Z" fill="#F0F0F0"/>
<path d="M15.6735 7.1145L15.8986 7.80738H16.6272L16.0378 8.23577L16.2629 8.92865L15.6735 8.5004L15.084 8.92865L15.3091 8.23577L14.7197 7.80738H15.4483L15.6735 7.1145Z" fill="#F0F0F0"/>
<path d="M17.9988 7.1145L18.2239 7.80738H18.9526L18.3631 8.23577L18.5882 8.92865L17.9988 8.5004L17.4092 8.92865L17.6345 8.23577L17.0449 7.80738H17.7736L17.9988 7.1145Z" fill="#F0F0F0"/>
<path d="M20.324 7.1145L20.5492 7.80738H21.2777L20.6883 8.23577L20.9135 8.92865L20.324 8.5004L19.7344 8.92865L19.9597 8.23577L19.3701 7.80738H20.0987L20.324 7.1145Z" fill="#F0F0F0"/>
<path d="M22.65 7.1145L22.8752 7.80738H23.6038L23.0144 8.23577L23.2396 8.92865L22.65 8.5004L22.0605 8.92865L22.2857 8.23577L21.6963 7.80738H22.4248L22.65 7.1145Z" fill="#F0F0F0"/>
<path d="M17.9988 4.69556L18.2239 5.38857H18.9526L18.3631 5.81683L18.5882 6.50984L17.9988 6.08159L17.4092 6.50984L17.6345 5.81683L17.0449 5.38857H17.7736L17.9988 4.69556Z" fill="#F0F0F0"/>
<path d="M20.324 4.69556L20.5492 5.38857H21.2777L20.6883 5.81683L20.9135 6.50984L20.324 6.08159L19.7344 6.50984L19.9597 5.81683L19.3701 5.38857H20.0987L20.324 4.69556Z" fill="#F0F0F0"/>
<path d="M22.65 4.69556L22.8752 5.38857H23.6038L23.0144 5.81683L23.2396 6.50984L22.65 6.08159L22.0605 6.50984L22.2857 5.81683L21.6963 5.38857H22.4248L22.65 4.69556Z" fill="#F0F0F0"/>
</g>
<defs>
<clipPath id="clip0_127_80">
<rect width="34" height="34" fill="white" transform="translate(1 1)"/>
</clipPath>
</defs>
</svg>
