<svg width="187" height="72" viewBox="0 0 187 72" fill="none" xmlns="http://www.w3.org/2000/svg">
<g clip-path="url(#clip0_197_109)">
<path d="M14.4808 37.5837C15.6652 38.0121 16.7022 38.7656 17.4705 39.7563C18.2141 40.6637 18.6137 41.8004 18.5999 42.9692C18.5895 43.7981 18.3934 44.6144 18.0257 45.3591C17.658 46.1037 17.128 46.7581 16.4739 47.275C15.0745 48.4843 13.2675 49.1282 11.4114 49.0789H0.25V26.9048H10.6009C12.3923 26.8653 14.1331 27.4952 15.4774 28.6693C16.108 29.1765 16.6166 29.8168 16.966 30.5434C17.3154 31.2701 17.4968 32.0648 17.4971 32.8697C17.5098 33.8607 17.2315 34.834 16.696 35.671C16.1604 36.508 15.3908 37.1725 14.4808 37.5837ZM10.6009 28.9985H2.81447V36.7278H10.6009C11.7266 36.7562 12.8204 36.3556 13.657 35.6085C14.0573 35.2723 14.3789 34.8538 14.5995 34.3819C14.8201 33.9101 14.9344 33.3963 14.9344 32.8763C14.9344 32.3563 14.8201 31.8425 14.5995 31.3707C14.3789 30.8988 14.0573 30.4802 13.657 30.144C12.8267 29.3839 11.731 28.9731 10.6009 28.9985ZM11.438 46.9984C12.6379 47.0265 13.8029 46.5976 14.6934 45.8002C15.1104 45.4405 15.4447 44.9964 15.6738 44.4978C15.9029 43.9992 16.0215 43.4578 16.0215 42.9099C16.0215 42.3621 15.9029 41.8206 15.6738 41.322C15.4447 40.8234 15.1104 40.3793 14.6934 40.0197C13.8029 39.2222 12.6379 38.7934 11.438 38.8214H2.81447V46.9984H11.438Z" fill="#F8931F" stroke="#F8931F"/>
<path d="M25.5625 46.9984H38.0394V49.0788H22.998V26.9048H37.8534V28.9984H25.5625V36.8989H36.9365V38.9794H25.5625V46.9984Z" fill="#F8931F" stroke="#F8931F"/>
<path d="M50.5159 49.4608C48.4121 49.5229 46.3296 49.0274 44.4835 48.0255C42.8875 47.1515 41.6475 45.7551 40.9756 44.0753L43.1813 42.9692C43.6179 44.2929 44.5119 45.4213 45.7059 46.1557C47.1694 46.9775 48.8351 47.3788 50.5159 47.3145C52.0768 47.4012 53.6278 47.0204 54.9672 46.2216C55.4604 45.9137 55.8658 45.4859 56.1449 44.9788C56.424 44.4717 56.5675 43.9023 56.5617 43.3247C56.5875 42.7948 56.4645 42.2681 56.2065 41.8032C55.9485 41.3384 55.5655 40.9534 55.1001 40.6912C53.5672 39.879 51.938 39.2597 50.2502 38.8478C48.4275 38.3944 46.6488 37.782 44.9352 37.0175C44.0634 36.6484 43.3202 36.0335 42.7981 35.2492C42.276 34.4649 41.998 33.5459 41.9987 32.6064C41.9886 31.7267 42.2009 30.8585 42.6164 30.0811C43.0318 29.3037 43.6372 28.6417 44.3772 28.1558C46.0274 27.0596 47.9861 26.511 49.9712 26.5888C51.7983 26.5291 53.6048 26.9858 55.1798 27.9056C56.5704 28.7238 57.699 29.9153 58.4352 31.3423L56.2827 32.3825C55.7369 31.2033 54.839 30.2186 53.7102 29.5616C52.5814 28.9046 51.2762 28.6069 49.9712 28.7088C48.6123 28.6479 47.2672 29.0018 46.1178 29.7227C45.6525 30.0251 45.2728 30.4402 45.0147 30.9287C44.7566 31.4172 44.6287 31.963 44.6429 32.5142C44.6173 33.0074 44.7274 33.4982 44.9614 33.9342C45.1955 34.3702 45.5446 34.7351 45.9716 34.9897C47.3452 35.7318 48.8102 36.294 50.3299 36.662L52.3496 37.2545C52.7482 37.373 53.3329 37.5573 54.1035 37.8207C54.6916 38.0107 55.2646 38.2439 55.8176 38.5186C56.1764 38.7161 56.6281 38.9926 57.1464 39.3481C57.5941 39.6151 57.9827 39.9689 58.2891 40.3884C58.5536 40.7988 58.7636 41.2414 58.9136 41.7051C59.103 42.2197 59.1975 42.7638 59.1926 43.3115C59.2126 44.2035 59.0036 45.0858 58.5852 45.8758C58.1669 46.6658 57.5529 47.3375 56.8009 47.828C54.9292 49.0089 52.7315 49.5799 50.5159 49.4608Z" fill="#F8931F" stroke="#F8931F"/>
<path d="M78.805 26.9048V28.9984H70.9521V49.0788H68.2946V28.9984H60.4551V26.9048H78.805Z" fill="#F8931F" stroke="#F8931F"/>
<path d="M108.742 49.0792L106.363 43.7068H94.1785L91.8001 49.145H89.1426L99.0152 26.9709H101.673L111.545 49.145L108.742 49.0792ZM95.0954 41.5474H105.499L100.317 29.6966L95.0954 41.5474Z" fill="#F8931F" stroke="#F8931F"/>
<path d="M130.094 47.3144C128.071 48.7112 125.664 49.46 123.198 49.46C120.732 49.46 118.326 48.7112 116.302 47.3144C115.439 46.6223 114.75 45.7413 114.289 44.7405C113.828 43.7397 113.607 42.6466 113.645 41.547V26.9048H116.222V41.547C116.188 42.341 116.334 43.1324 116.652 43.8621C116.969 44.5918 117.45 45.2409 118.056 45.7606C119.574 46.7734 121.362 47.3143 123.192 47.3143C125.021 47.3143 126.809 46.7734 128.327 45.7606C128.934 45.2409 129.414 44.5918 129.731 43.8621C130.049 43.1324 130.196 42.341 130.161 41.547V26.9048H132.725V41.547C132.769 42.6448 132.554 43.7376 132.097 44.7387C131.641 45.7398 130.955 46.6217 130.094 47.3144Z" fill="#F8931F" stroke="#F8931F"/>
<path d="M148.152 26.9052C151.358 26.801 154.476 27.9557 156.828 30.118C157.919 31.1305 158.789 32.354 159.384 33.713C159.978 35.0719 160.285 36.5373 160.285 38.0185C160.285 39.4997 159.978 40.9651 159.384 42.3241C158.789 43.683 157.919 44.9066 156.828 45.919C154.48 48.0863 151.359 49.2418 148.152 49.1319H138.239V26.9052H148.152ZM148.152 46.9988C149.425 47.0414 150.693 46.8303 151.883 46.3779C153.072 45.9255 154.157 45.2411 155.074 44.3653C155.929 43.5287 156.608 42.5323 157.071 41.4338C157.535 40.3352 157.773 39.1565 157.773 37.9659C157.773 36.7753 157.535 35.5965 157.071 34.498C156.608 33.3994 155.929 32.403 155.074 31.5665C154.156 30.6924 153.07 30.0092 151.881 29.557C150.693 29.1047 149.424 28.8925 148.152 28.933H140.817V46.9988H148.152Z" fill="#F8931F" stroke="#F8931F"/>
<path d="M164.668 26.9048H167.233V49.0788H164.668V26.9048Z" fill="#F8931F" stroke="#F8931F"/>
<path d="M189.21 26.9048V28.9984H181.317V49.0788H178.753V28.9984H170.86V26.9048H189.21Z" fill="#F8931F" stroke="#F8931F"/>
<path d="M165.404 54.9575H24.5263C23.6834 54.9575 23 55.6409 23 56.4838C23 57.3268 23.6833 58.0102 24.5263 58.0102H94.965H165.404C166.247 58.0102 166.93 57.3268 166.93 56.4838C166.93 55.6409 166.247 54.9575 165.404 54.9575Z" fill="#F8931F"/>
<mask id="path-11-inside-1_197_109" fill="white">
<path d="M77.399 13.8296H23.7321C23.2878 13.8296 22.9277 14.1897 22.9277 14.6339C22.9277 15.0782 23.2879 15.4383 23.7321 15.4383H77.399C77.8432 15.4383 78.2033 15.0782 78.2033 14.6339C78.2033 14.1897 77.8432 13.8296 77.399 13.8296Z"/>
</mask>
<path d="M77.399 13.8296H23.7321C23.2878 13.8296 22.9277 14.1897 22.9277 14.6339C22.9277 15.0782 23.2879 15.4383 23.7321 15.4383H77.399C77.8432 15.4383 78.2033 15.0782 78.2033 14.6339C78.2033 14.1897 77.8432 13.8296 77.399 13.8296Z" fill="#F8931F"/>
<path d="M23.7321 15.8296H77.399V11.8296H23.7321V15.8296ZM77.399 13.4383H23.7321V17.4383H77.399V13.4383ZM23.7321 13.4383C24.3924 13.4383 24.9277 13.9736 24.9277 14.6339H20.9277C20.9277 16.1827 22.1833 17.4383 23.7321 17.4383V13.4383ZM76.2033 14.6339C76.2033 13.9736 76.7386 13.4383 77.399 13.4383V17.4383C78.9478 17.4383 80.2033 16.1827 80.2033 14.6339H76.2033ZM77.399 15.8296C76.7386 15.8296 76.2033 15.2943 76.2033 14.6339H80.2033C80.2033 13.0851 78.9478 11.8296 77.399 11.8296V15.8296ZM23.7321 11.8296C22.1833 11.8296 20.9277 13.0851 20.9277 14.6339H24.9277C24.9277 15.2943 24.3924 15.8296 23.7321 15.8296V11.8296Z" fill="#F8931F" mask="url(#path-11-inside-1_197_109)"/>
<mask id="path-13-inside-2_197_109" fill="white">
<path d="M165.414 13.8296H111.748C111.303 13.8296 110.943 14.1897 110.943 14.6339C110.943 15.0782 111.303 15.4383 111.748 15.4383H165.414C165.859 15.4383 166.219 15.0782 166.219 14.6339C166.219 14.1897 165.859 13.8296 165.414 13.8296Z"/>
</mask>
<path d="M165.414 13.8296H111.748C111.303 13.8296 110.943 14.1897 110.943 14.6339C110.943 15.0782 111.303 15.4383 111.748 15.4383H165.414C165.859 15.4383 166.219 15.0782 166.219 14.6339C166.219 14.1897 165.859 13.8296 165.414 13.8296Z" fill="#F8931F"/>
<path d="M111.748 15.8296H165.414V11.8296H111.748V15.8296ZM165.414 13.4383H111.748V17.4383H165.414V13.4383ZM111.748 13.4383C112.408 13.4383 112.943 13.9736 112.943 14.6339H108.943C108.943 16.1827 110.199 17.4383 111.748 17.4383V13.4383ZM164.219 14.6339C164.219 13.9736 164.754 13.4383 165.414 13.4383V17.4383C166.963 17.4383 168.219 16.1827 168.219 14.6339H164.219ZM165.414 15.8296C164.754 15.8296 164.219 15.2943 164.219 14.6339H168.219C168.219 13.0851 166.963 11.8296 165.414 11.8296V15.8296ZM111.748 11.8296C110.199 11.8296 108.943 13.0851 108.943 14.6339H112.943C112.943 15.2943 112.408 15.8296 111.748 15.8296V11.8296Z" fill="#F8931F" mask="url(#path-13-inside-2_197_109)"/>
<path d="M95.8763 19.506H86.5703V1.5185H95.1987H95.2061L95.2136 1.51828C96.8128 1.47066 98.38 1.96543 99.656 2.91997L99.656 2.91998L99.659 2.92217C100.187 3.31144 100.615 3.81871 100.908 4.4023C101.2 4.98588 101.349 5.62943 101.342 6.2805L101.342 6.28049L101.342 6.29224C101.352 6.99294 101.166 7.68295 100.806 8.28659C100.445 8.89027 99.9235 9.38446 99.2973 9.71438L99.5303 10.1567L99.3343 10.6167C100.167 10.9717 100.893 11.5334 101.442 12.247C101.934 12.9242 102.192 13.74 102.179 14.5734L102.179 14.5734L102.179 14.5847C102.184 15.2621 102.025 15.9311 101.715 16.5354C101.405 17.1397 100.953 17.662 100.396 18.0581L100.396 18.0579L100.386 18.0656C99.0947 19.0356 97.509 19.5437 95.8879 19.5062L95.8879 19.506H95.8763ZM89.8838 9.44533H95.1908C96.0701 9.47207 96.9288 9.17442 97.6004 8.60903C97.9279 8.35135 98.1918 8.02229 98.3714 7.64692C98.5514 7.27061 98.6417 6.85809 98.6352 6.44133C98.6381 6.02651 98.5464 5.61654 98.3673 5.24203C98.1878 4.8668 97.9252 4.53708 97.5994 4.27729C96.9237 3.72155 96.0675 3.42953 95.1912 3.45485H89.8838H89.3838V3.95485V8.94533V9.44533H89.8838ZM89.8838 11.3027H89.3838V11.8027V17.0697V17.5653L89.8794 17.5697L95.9073 17.6223C96.8334 17.6467 97.7363 17.3293 98.4407 16.7307C98.779 16.4578 99.0523 16.1135 99.2406 15.7225C99.4299 15.3292 99.5282 14.8987 99.5282 14.4625C99.5282 14.0264 99.4299 13.5959 99.2406 13.2026C99.0523 12.8115 98.779 12.4673 98.4407 12.1944C97.7369 11.5962 96.8349 11.2789 95.9095 11.3027H89.8838Z" fill="#F8931F" stroke="#F8931F"/>
</g>
<path d="M37.6934 64.498H34.7446V66.0493H36.0542C36.5229 66.0493 36.9316 66.1299 37.2803 66.291C37.6289 66.4521 37.894 66.6807 38.0757 66.9766C38.2573 67.2725 38.3481 67.6152 38.3481 68.0049C38.3481 68.6025 38.1445 69.083 37.7373 69.4463C37.333 69.8096 36.7808 69.9941 36.0806 70H33.6328V63.6016H37.6934V64.498ZM34.7446 66.9414V69.1123H36.0498C36.4248 69.1123 36.7163 69.0112 36.9243 68.8091C37.1353 68.604 37.2407 68.333 37.2407 67.9961C37.2407 67.6738 37.1382 67.4189 36.9331 67.2314C36.728 67.0439 36.4438 66.9473 36.0806 66.9414H34.7446ZM41.5342 66.9458L42.8174 63.6016H44.0522L41.8242 68.9102L41.6221 69.3101C41.3291 69.8315 40.8545 70.0923 40.1982 70.0923L39.7412 70.0659L39.75 69.187C39.8203 69.1987 39.9448 69.2046 40.1235 69.2046C40.4399 69.2046 40.6626 69.0698 40.7915 68.8003L41.02 68.2598L38.8315 63.6016H40.0444L41.5342 66.9458ZM47.1021 65.9131L48.4468 63.6016H49.73L47.7964 66.7744L49.7739 70H48.4775L47.1021 67.6533L45.7222 70H44.4302L46.4121 66.7744L44.4741 63.6016H45.7573L47.1021 65.9131ZM54.687 64.498H51.7339V70H50.6265V63.6016H54.687V64.498ZM58.2905 68.5103H55.812L55.2935 70H54.1377L56.5547 63.6016H57.5522L59.9736 70H58.8135L58.2905 68.5103ZM56.124 67.6138H57.9785L57.0513 64.9595L56.124 67.6138ZM65.814 63.6016V70H64.7065V64.498H62.7466L62.6323 66.9722C62.5884 67.7456 62.4932 68.3462 62.3467 68.7739C62.2031 69.1987 61.9937 69.5093 61.7183 69.7056C61.4429 69.9019 61.0737 70 60.6108 70H60.3296V69.1123L60.5054 69.0991C60.7603 69.0757 60.9565 68.9863 61.0942 68.8311C61.2349 68.6758 61.3403 68.4414 61.4106 68.1279C61.4839 67.8115 61.5352 67.3472 61.5645 66.7349L61.6875 63.6016H65.814ZM71.6455 64.498H69.6504V70H68.5474V64.498H66.5698V63.6016H71.6455V64.498ZM76.229 67.1436H73.6011V69.1123H76.6729V70H72.4893V63.6016H76.6421V64.498H73.6011V66.2646H76.229V67.1436ZM78.6899 67.6226V70H77.5781V63.6016H80.0259C80.7407 63.6016 81.3076 63.7876 81.7266 64.1597C82.1484 64.5317 82.3594 65.0239 82.3594 65.6362C82.3594 66.2632 82.1528 66.751 81.7397 67.0996C81.3296 67.4482 80.7539 67.6226 80.0127 67.6226H78.6899ZM78.6899 66.7305H80.0259C80.4214 66.7305 80.7231 66.6382 80.9312 66.4536C81.1392 66.2661 81.2432 65.9966 81.2432 65.645C81.2432 65.2993 81.1377 65.0239 80.9268 64.8188C80.7158 64.6108 80.4258 64.5039 80.0566 64.498H78.6899V66.7305ZM88.2173 67.917C88.1528 68.5996 87.9009 69.1328 87.4614 69.5166C87.022 69.8975 86.4375 70.0879 85.708 70.0879C85.1982 70.0879 84.7485 69.9678 84.3589 69.7275C83.9722 69.4844 83.6733 69.1401 83.4624 68.6948C83.2515 68.2495 83.1416 67.7324 83.1328 67.1436V66.5459C83.1328 65.9424 83.2397 65.4106 83.4536 64.9507C83.6675 64.4907 83.9736 64.1362 84.3721 63.8872C84.7734 63.6382 85.2363 63.5137 85.7607 63.5137C86.4668 63.5137 87.0352 63.7056 87.4658 64.0894C87.8965 64.4731 88.147 65.0151 88.2173 65.7153H87.1099C87.0571 65.2554 86.9224 64.9243 86.7056 64.7222C86.4917 64.5171 86.1768 64.4146 85.7607 64.4146C85.2773 64.4146 84.9053 64.5918 84.6445 64.9463C84.3867 65.2979 84.2549 65.8149 84.249 66.4976V67.0645C84.249 67.7559 84.3721 68.2832 84.6182 68.6465C84.8672 69.0098 85.2305 69.1914 85.708 69.1914C86.1445 69.1914 86.4727 69.0933 86.6924 68.897C86.9121 68.7007 87.0513 68.374 87.1099 67.917H88.2173ZM91.1089 67.2578H90.353V70H89.2456V63.6016H90.353V66.291H90.9639L92.8447 63.6016H94.207L92.0098 66.6646L94.4004 70H93.0645L91.1089 67.2578ZM98.5972 68.5103H96.1187L95.6001 70H94.4443L96.8613 63.6016H97.8589L100.28 70H99.1201L98.5972 68.5103ZM96.4307 67.6138H98.2852L97.3579 64.9595L96.4307 67.6138ZM104.165 70V67.6094H102.926L101.691 70H100.5L101.928 67.2798C101.184 66.9282 100.812 66.3525 100.812 65.5527C100.812 64.9404 101.013 64.4644 101.414 64.1245C101.818 63.7817 102.381 63.6074 103.102 63.6016H105.277V70H104.165ZM101.919 65.6011C101.919 65.9614 102.021 66.2427 102.223 66.4448C102.425 66.647 102.728 66.748 103.132 66.748H104.165V64.498H103.132C102.722 64.498 102.417 64.5962 102.218 64.7925C102.019 64.9888 101.919 65.2583 101.919 65.6011ZM110.735 67.2578H109.979V70H108.872V63.6016H109.979V66.291H110.59L112.471 63.6016H113.833L111.636 66.6646L114.026 70H112.69L110.735 67.2578ZM119.607 66.9678C119.607 67.5947 119.499 68.1455 119.282 68.6201C119.065 69.0918 118.755 69.4551 118.351 69.71C117.949 69.9619 117.486 70.0879 116.962 70.0879C116.443 70.0879 115.98 69.9619 115.573 69.71C115.169 69.4551 114.855 69.0933 114.633 68.6245C114.413 68.1558 114.302 67.6152 114.299 67.0029V66.6426C114.299 66.0186 114.409 65.4678 114.628 64.9902C114.851 64.5127 115.163 64.1479 115.564 63.896C115.969 63.6411 116.432 63.5137 116.953 63.5137C117.475 63.5137 117.936 63.6396 118.337 63.8916C118.742 64.1406 119.054 64.501 119.273 64.9727C119.493 65.4414 119.604 65.9878 119.607 66.6118V66.9678ZM118.496 66.6338C118.496 65.9248 118.361 65.3813 118.091 65.0034C117.825 64.6255 117.445 64.4365 116.953 64.4365C116.473 64.4365 116.096 64.6255 115.824 65.0034C115.554 65.3784 115.417 65.9102 115.411 66.5986V66.9678C115.411 67.6709 115.547 68.2144 115.819 68.5981C116.095 68.9819 116.476 69.1738 116.962 69.1738C117.454 69.1738 117.832 68.9863 118.096 68.6113C118.362 68.2363 118.496 67.6885 118.496 66.9678V66.6338ZM122.156 63.6016L124.002 68.5059L125.843 63.6016H127.28V70H126.173V67.8906L126.283 65.0693L124.393 70H123.598L121.712 65.0737L121.822 67.8906V70H120.715V63.6016H122.156ZM133.661 70H132.554V64.498H129.737V70H128.629V63.6016H133.661V70ZM138.587 68.5103H136.109L135.59 70H134.435L136.852 63.6016H137.849L140.271 70H139.11L138.587 68.5103ZM136.421 67.6138H138.275L137.348 64.9595L136.421 67.6138ZM146.08 70H144.973V67.1567H142.112V70H141V63.6016H142.112V66.2646H144.973V63.6016H146.08V70ZM151.318 63.6016H152.43V70H151.318V65.4429L148.51 70H147.398V63.6016H148.51V68.1631L151.318 63.6016ZM156.917 70V67.6094H155.678L154.443 70H153.252L154.68 67.2798C153.936 66.9282 153.564 66.3525 153.564 65.5527C153.564 64.9404 153.765 64.4644 154.166 64.1245C154.57 63.7817 155.133 63.6074 155.854 63.6016H158.029V70H156.917ZM154.671 65.6011C154.671 65.9614 154.772 66.2427 154.975 66.4448C155.177 66.647 155.48 66.748 155.884 66.748H156.917V64.498H155.884C155.474 64.498 155.169 64.5962 154.97 64.7925C154.771 64.9888 154.671 65.2583 154.671 65.6011Z" fill="#F8931F"/>
<defs>
<clipPath id="clip0_197_109">
<rect width="187" height="58" fill="white"/>
</clipPath>
</defs>
</svg>
