<svg width="256" height="14" viewBox="0 0 256 14" fill="none" xmlns="http://www.w3.org/2000/svg">
<path opacity="0.5" d="M4.55957 11.123C4.04004 11.123 3.58203 11.0046 3.18555 10.7676C2.78906 10.5306 2.47689 10.2002 2.24902 9.77637H2.22168V11H0.786133V1.13574H2.2627V5.03223H2.29688C2.51562 4.61296 2.82096 4.28483 3.21289 4.04785C3.60938 3.81087 4.06055 3.69238 4.56641 3.69238C5.47331 3.69238 6.19792 4.02734 6.74023 4.69727C7.28711 5.36719 7.56055 6.26953 7.56055 7.4043C7.56055 8.54362 7.28939 9.44824 6.74707 10.1182C6.20475 10.7881 5.47559 11.123 4.55957 11.123ZM4.16309 4.93652C3.59798 4.93652 3.1377 5.16439 2.78223 5.62012C2.43132 6.07129 2.25586 6.66602 2.25586 7.4043C2.25586 8.14714 2.43132 8.74414 2.78223 9.19531C3.1377 9.64648 3.59798 9.87207 4.16309 9.87207C4.74186 9.87207 5.19987 9.65104 5.53711 9.20898C5.87435 8.76693 6.04297 8.16536 6.04297 7.4043C6.04297 6.64779 5.87435 6.0485 5.53711 5.60645C5.19987 5.15983 4.74186 4.93652 4.16309 4.93652ZM12.9746 5.3877C12.651 5.04134 12.234 4.86816 11.7236 4.86816C11.2132 4.86816 10.7894 5.04362 10.4521 5.39453C10.1149 5.74089 9.92806 6.18978 9.8916 6.74121H13.4873C13.4691 6.18522 13.2982 5.73405 12.9746 5.3877ZM13.4805 8.8877H14.8818C14.777 9.5485 14.4398 10.0885 13.8701 10.5078C13.3005 10.9271 12.6055 11.1367 11.7852 11.1367C10.7324 11.1367 9.90299 10.8063 9.29688 10.1455C8.69531 9.48014 8.39453 8.5778 8.39453 7.43848C8.39453 6.30827 8.69531 5.39909 9.29688 4.71094C9.90299 4.02279 10.7119 3.67871 11.7236 3.67871C12.7171 3.67871 13.5055 4.00456 14.0889 4.65625C14.6722 5.30339 14.9639 6.17383 14.9639 7.26758V7.77344H9.88477V7.8623C9.88477 8.49121 10.0602 8.99479 10.4111 9.37305C10.762 9.7513 11.2314 9.94043 11.8193 9.94043C12.234 9.94043 12.5895 9.84473 12.8857 9.65332C13.182 9.46191 13.3802 9.20671 13.4805 8.8877ZM15.9824 5.8457C15.9824 5.20312 16.2422 4.68132 16.7617 4.28027C17.2812 3.87923 17.9603 3.67871 18.7988 3.67871C19.5964 3.67871 20.2503 3.88151 20.7607 4.28711C21.2757 4.68815 21.5446 5.20996 21.5674 5.85254H20.1797C20.1432 5.52441 19.9997 5.26693 19.749 5.08008C19.4984 4.89323 19.168 4.7998 18.7578 4.7998C18.3568 4.7998 18.0332 4.88867 17.7871 5.06641C17.5456 5.24414 17.4248 5.47428 17.4248 5.75684C17.4248 6.19434 17.7917 6.50423 18.5254 6.68652L19.7354 6.9668C20.46 7.13997 20.9727 7.37695 21.2734 7.67773C21.5788 7.97396 21.7314 8.38867 21.7314 8.92188C21.7314 9.57812 21.4535 10.1113 20.8975 10.5215C20.346 10.9316 19.6283 11.1367 18.7441 11.1367C17.901 11.1367 17.2129 10.9362 16.6797 10.5352C16.151 10.1341 15.8571 9.60091 15.7979 8.93555H17.2607C17.32 9.2819 17.4818 9.5485 17.7461 9.73535C18.0104 9.91764 18.3659 10.0088 18.8125 10.0088C19.2546 10.0088 19.6032 9.92448 19.8584 9.75586C20.1182 9.58268 20.248 9.35026 20.248 9.05859C20.248 8.82617 20.1706 8.6416 20.0156 8.50488C19.8607 8.36816 19.5964 8.25195 19.2227 8.15625L17.9375 7.8418C16.6341 7.52734 15.9824 6.86198 15.9824 5.8457ZM23.3105 2.10645H24.7939V3.80859H26.1611V4.97754H24.7939V8.94238C24.7939 9.25228 24.8646 9.48014 25.0059 9.62598C25.1471 9.77181 25.3682 9.84473 25.6689 9.84473C25.8877 9.84473 26.0495 9.83333 26.1543 9.81055V10.9795C25.972 11.0251 25.6986 11.0479 25.334 11.0479C24.6094 11.0479 24.0898 10.8997 23.7754 10.6035C23.4655 10.3027 23.3105 9.80371 23.3105 9.10645V4.97754H22.2646V3.80859H23.3105V2.10645ZM29.7842 9.9541C30.3037 9.9541 30.7389 9.79688 31.0898 9.48242C31.4453 9.16341 31.623 8.77148 31.623 8.30664V7.73926L29.8525 7.84863C29.4105 7.88053 29.0687 7.98991 28.8271 8.17676C28.5902 8.35905 28.4717 8.60514 28.4717 8.91504C28.4717 9.22949 28.5902 9.48242 28.8271 9.67383C29.0687 9.86068 29.3877 9.9541 29.7842 9.9541ZM29.374 11.123C28.6676 11.123 28.0911 10.9225 27.6445 10.5215C27.2025 10.1204 26.9814 9.59863 26.9814 8.95605C26.9814 8.32715 27.2139 7.82812 27.6787 7.45898C28.1436 7.08529 28.8021 6.87565 29.6543 6.83008L31.623 6.71387V6.16016C31.623 5.75911 31.4954 5.44694 31.2402 5.22363C30.985 4.99577 30.6318 4.88184 30.1807 4.88184C29.7614 4.88184 29.4196 4.97526 29.1553 5.16211C28.8955 5.34896 28.7314 5.60645 28.6631 5.93457H27.2686C27.3096 5.26921 27.5967 4.72689 28.1299 4.30762C28.6631 3.88835 29.3649 3.67871 30.2354 3.67871C31.1058 3.67871 31.7985 3.8929 32.3135 4.32129C32.833 4.74967 33.0928 5.32389 33.0928 6.04395V11H31.6777V9.81738H31.6436C31.4385 10.2139 31.1263 10.5306 30.707 10.7676C30.2923 11.0046 29.848 11.123 29.374 11.123ZM40.6943 3.80859V11H39.2793V9.7832H39.2451C38.8304 10.681 38.0876 11.1299 37.0166 11.1299C36.2327 11.1299 35.6152 10.8929 35.1641 10.4189C34.7174 9.94043 34.4941 9.28874 34.4941 8.46387V3.80859H35.9707V8.17676C35.9707 8.72819 36.1006 9.14746 36.3604 9.43457C36.6201 9.71712 37.0029 9.8584 37.5088 9.8584C38.0374 9.8584 38.4544 9.68978 38.7598 9.35254C39.0651 9.0153 39.2178 8.56413 39.2178 7.99902V3.80859H40.6943ZM44.8574 11.123C43.946 11.123 43.2145 10.7858 42.6631 10.1113C42.1117 9.43685 41.8359 8.53451 41.8359 7.4043C41.8359 6.27409 42.1094 5.37402 42.6562 4.7041C43.2077 4.02962 43.9368 3.69238 44.8438 3.69238C45.3496 3.69238 45.8008 3.81087 46.1973 4.04785C46.5938 4.28027 46.8945 4.59928 47.0996 5.00488H47.127V1.13574H48.6104V11H47.1748V9.77637H47.1475C46.9333 10.1956 46.6257 10.526 46.2246 10.7676C45.8281 11.0046 45.3724 11.123 44.8574 11.123ZM45.2471 4.93652C44.6637 4.93652 44.2012 5.15983 43.8594 5.60645C43.5176 6.0485 43.3467 6.64779 43.3467 7.4043C43.3467 8.16536 43.5176 8.76693 43.8594 9.20898C44.2012 9.65104 44.6637 9.87207 45.2471 9.87207C45.8167 9.87207 46.2747 9.64876 46.6211 9.20215C46.9674 8.75098 47.1406 8.15169 47.1406 7.4043C47.1406 6.66146 46.9674 6.06445 46.6211 5.61328C46.2747 5.16211 45.8167 4.93652 45.2471 4.93652ZM50.1758 11V3.80859H51.6523V11H50.1758ZM51.5225 2.50977C51.3538 2.67383 51.151 2.75586 50.9141 2.75586C50.6771 2.75586 50.4743 2.67383 50.3057 2.50977C50.1416 2.3457 50.0596 2.14746 50.0596 1.91504C50.0596 1.67806 50.1416 1.47754 50.3057 1.31348C50.4743 1.14941 50.6771 1.06738 50.9141 1.06738C51.1556 1.06738 51.3584 1.14941 51.5225 1.31348C51.6911 1.47754 51.7754 1.67806 51.7754 1.91504C51.7754 2.14746 51.6911 2.3457 51.5225 2.50977ZM58.7344 10.1387C58.1146 10.804 57.2874 11.1367 56.2529 11.1367C55.2184 11.1367 54.3913 10.804 53.7715 10.1387C53.1517 9.46875 52.8418 8.55729 52.8418 7.4043C52.8418 6.25586 53.1517 5.34896 53.7715 4.68359C54.3913 4.01367 55.2184 3.67871 56.2529 3.67871C57.2874 3.67871 58.1146 4.01367 58.7344 4.68359C59.3542 5.34896 59.6641 6.25586 59.6641 7.4043C59.6641 8.55729 59.3542 9.46875 58.7344 10.1387ZM56.2529 9.91992C56.8408 9.91992 57.3057 9.69889 57.6475 9.25684C57.9893 8.81478 58.1602 8.19727 58.1602 7.4043C58.1602 6.61589 57.987 6.00065 57.6406 5.55859C57.2988 5.11654 56.8363 4.89551 56.2529 4.89551C55.6696 4.89551 55.2048 5.11654 54.8584 5.55859C54.5166 6.00065 54.3457 6.61589 54.3457 7.4043C54.3457 8.19727 54.5166 8.81478 54.8584 9.25684C55.2048 9.69889 55.6696 9.91992 56.2529 9.91992ZM68.7354 12.0801C67.7419 12.0801 66.8304 11.8431 66.001 11.3691C65.1761 10.8952 64.5244 10.2435 64.0459 9.41406C63.5674 8.58464 63.3281 7.66634 63.3281 6.65918C63.3281 5.65202 63.5674 4.73372 64.0459 3.9043C64.5244 3.07487 65.1761 2.42546 66.001 1.95605C66.8304 1.4821 67.7419 1.24512 68.7354 1.24512C69.738 1.24512 70.6517 1.4821 71.4766 1.95605C72.306 2.42546 72.9577 3.07487 73.4316 3.9043C73.9102 4.73372 74.1494 5.65202 74.1494 6.65918C74.1494 7.66634 73.9102 8.58464 73.4316 9.41406C72.9577 10.2435 72.306 10.8952 71.4766 11.3691C70.6471 11.8431 69.7334 12.0801 68.7354 12.0801ZM68.7354 11.0615C69.3415 11.0615 69.9157 10.9499 70.458 10.7266C71.0003 10.4987 71.4652 10.1911 71.8525 9.80371C72.2445 9.41178 72.5544 8.94466 72.7822 8.40234C73.0101 7.85547 73.124 7.27441 73.124 6.65918C73.124 6.04395 73.0101 5.46289 72.7822 4.91602C72.5544 4.36914 72.2445 3.9043 71.8525 3.52148C71.4652 3.13411 71.0003 2.82878 70.458 2.60547C69.9157 2.3776 69.3415 2.26367 68.7354 2.26367C67.9287 2.26367 67.1904 2.45508 66.5205 2.83789C65.8506 3.21615 65.3197 3.74251 64.9277 4.41699C64.5404 5.09147 64.3467 5.83887 64.3467 6.65918C64.3467 7.47949 64.5404 8.22689 64.9277 8.90137C65.3197 9.57585 65.8506 10.1045 66.5205 10.4873C67.1904 10.8701 67.9287 11.0615 68.7354 11.0615ZM71.292 5.77051H70.2256C70.1527 5.47428 69.9954 5.23503 69.7539 5.05273C69.5169 4.86589 69.2161 4.77246 68.8516 4.77246C68.3776 4.77246 67.9993 4.94108 67.7168 5.27832C67.4388 5.611 67.2998 6.06901 67.2998 6.65234C67.2998 7.24023 67.4388 7.70508 67.7168 8.04688C67.9993 8.38411 68.3776 8.55273 68.8516 8.55273C69.2116 8.55273 69.5124 8.4707 69.7539 8.30664C69.9954 8.13802 70.1527 7.89876 70.2256 7.58887H71.292C71.2145 8.15853 70.9593 8.61882 70.5264 8.96973C70.098 9.31608 69.542 9.48926 68.8584 9.48926C68.0381 9.48926 67.3864 9.23633 66.9033 8.73047C66.4248 8.22005 66.1855 7.52734 66.1855 6.65234C66.1855 5.79102 66.4248 5.10742 66.9033 4.60156C67.3864 4.09115 68.0335 3.83594 68.8447 3.83594C69.5283 3.83594 70.0866 4.01823 70.5195 4.38281C70.957 4.74284 71.2145 5.2054 71.292 5.77051ZM78.0938 4.02734C78.0938 3.13867 78.4128 2.40495 79.0508 1.82617C79.6934 1.24284 80.5046 0.951172 81.4844 0.951172C82.4232 0.951172 83.2048 1.21549 83.8291 1.74414C84.4535 2.27279 84.7656 2.92904 84.7656 3.71289C84.7656 4.26432 84.613 4.78841 84.3076 5.28516C84.0023 5.77734 83.4691 6.41309 82.708 7.19238L80.2402 9.67383V9.70801H84.9229V11H78.1758V9.96094L81.7373 6.33105C82.3389 5.70215 82.7422 5.21908 82.9473 4.88184C83.1523 4.54004 83.2549 4.17546 83.2549 3.78809C83.2549 3.35059 83.0794 2.97917 82.7285 2.67383C82.3776 2.36849 81.9469 2.21582 81.4365 2.21582C80.8988 2.21582 80.4476 2.389 80.083 2.73535C79.723 3.07715 79.543 3.50553 79.543 4.02051V4.04102H78.0938V4.02734ZM92.6338 9.80371C91.973 10.7243 91.0547 11.1846 89.8789 11.1846C88.7031 11.1846 87.7803 10.7266 87.1104 9.81055C86.445 8.88997 86.1123 7.639 86.1123 6.05762C86.1123 4.48991 86.4473 3.24805 87.1172 2.33203C87.7871 1.41146 88.7077 0.951172 89.8789 0.951172C91.0501 0.951172 91.9684 1.40918 92.6338 2.3252C93.2992 3.23665 93.6318 4.47852 93.6318 6.05078C93.6318 7.63216 93.2992 8.88314 92.6338 9.80371ZM88.2451 8.88086C88.6325 9.5599 89.1771 9.89941 89.8789 9.89941C90.5807 9.89941 91.123 9.5599 91.5059 8.88086C91.8932 8.19727 92.0869 7.25618 92.0869 6.05762C92.0869 4.87272 91.891 3.94076 91.499 3.26172C91.1117 2.57812 90.5716 2.23633 89.8789 2.23633C89.1862 2.23633 88.6439 2.57812 88.252 3.26172C87.86 3.94531 87.6641 4.87728 87.6641 6.05762C87.6641 7.25618 87.8577 8.19727 88.2451 8.88086ZM94.8145 4.02734C94.8145 3.13867 95.1335 2.40495 95.7715 1.82617C96.4141 1.24284 97.2253 0.951172 98.2051 0.951172C99.1439 0.951172 99.9255 1.21549 100.55 1.74414C101.174 2.27279 101.486 2.92904 101.486 3.71289C101.486 4.26432 101.334 4.78841 101.028 5.28516C100.723 5.77734 100.19 6.41309 99.4287 7.19238L96.9609 9.67383V9.70801H101.644V11H94.8965V9.96094L98.458 6.33105C99.0596 5.70215 99.4629 5.21908 99.668 4.88184C99.873 4.54004 99.9756 4.17546 99.9756 3.78809C99.9756 3.35059 99.8001 2.97917 99.4492 2.67383C99.0983 2.36849 98.6676 2.21582 98.1572 2.21582C97.6195 2.21582 97.1683 2.389 96.8037 2.73535C96.4437 3.07715 96.2637 3.50553 96.2637 4.02051V4.04102H94.8145V4.02734ZM109.354 9.80371C108.694 10.7243 107.775 11.1846 106.6 11.1846C105.424 11.1846 104.501 10.7266 103.831 9.81055C103.166 8.88997 102.833 7.639 102.833 6.05762C102.833 4.48991 103.168 3.24805 103.838 2.33203C104.508 1.41146 105.428 0.951172 106.6 0.951172C107.771 0.951172 108.689 1.40918 109.354 2.3252C110.02 3.23665 110.353 4.47852 110.353 6.05078C110.353 7.63216 110.02 8.88314 109.354 9.80371ZM104.966 8.88086C105.353 9.5599 105.898 9.89941 106.6 9.89941C107.301 9.89941 107.844 9.5599 108.227 8.88086C108.614 8.19727 108.808 7.25618 108.808 6.05762C108.808 4.87272 108.612 3.94076 108.22 3.26172C107.832 2.57812 107.292 2.23633 106.6 2.23633C105.907 2.23633 105.365 2.57812 104.973 3.26172C104.581 3.94531 104.385 4.87728 104.385 6.05762C104.385 7.25618 104.578 8.19727 104.966 8.88086ZM113.135 10.8154C112.962 10.9886 112.75 11.0752 112.499 11.0752C112.248 11.0752 112.036 10.9886 111.863 10.8154C111.69 10.6423 111.604 10.4303 111.604 10.1797C111.604 9.92904 111.69 9.71712 111.863 9.54395C112.036 9.37077 112.248 9.28418 112.499 9.28418C112.75 9.28418 112.962 9.37077 113.135 9.54395C113.308 9.71712 113.395 9.92904 113.395 10.1797C113.395 10.4303 113.308 10.6423 113.135 10.8154ZM121.379 11H117.421V1.13574H121.358C122.233 1.13574 122.935 1.36133 123.464 1.8125C123.993 2.25911 124.257 2.85384 124.257 3.59668C124.257 4.12077 124.086 4.59017 123.744 5.00488C123.407 5.41504 122.992 5.66113 122.5 5.74316V5.79785C123.174 5.87533 123.717 6.13509 124.127 6.57715C124.537 7.01465 124.742 7.55924 124.742 8.21094C124.742 9.08138 124.444 9.76497 123.847 10.2617C123.25 10.7539 122.427 11 121.379 11ZM118.952 2.38672V5.33301H120.668C121.329 5.33301 121.837 5.20085 122.192 4.93652C122.548 4.6722 122.726 4.29622 122.726 3.80859C122.726 3.35286 122.575 3.00195 122.274 2.75586C121.974 2.50977 121.545 2.38672 120.989 2.38672H118.952ZM118.952 9.74902H121.064C121.753 9.74902 122.277 9.61003 122.637 9.33203C122.997 9.05404 123.177 8.64844 123.177 8.11523C123.177 7.03971 122.443 6.50195 120.976 6.50195H118.952V9.74902ZM132.152 6.1123H130.73C130.63 5.75684 130.439 5.46745 130.156 5.24414C129.874 5.02083 129.514 4.90918 129.076 4.90918C128.507 4.90918 128.049 5.13704 127.702 5.59277C127.36 6.04395 127.189 6.64779 127.189 7.4043C127.189 8.17904 127.36 8.78971 127.702 9.23633C128.049 9.67839 128.511 9.89941 129.09 9.89941C129.523 9.89941 129.881 9.79688 130.163 9.5918C130.446 9.38216 130.639 9.08822 130.744 8.70996H132.166C132.061 9.43913 131.729 10.027 131.168 10.4736C130.612 10.9157 129.915 11.1367 129.076 11.1367C128.042 11.1367 127.219 10.8018 126.608 10.1318C125.998 9.46191 125.692 8.55273 125.692 7.4043C125.692 6.27409 125.998 5.37174 126.608 4.69727C127.224 4.01823 128.042 3.67871 129.062 3.67871C129.915 3.67871 130.614 3.91113 131.161 4.37598C131.713 4.83626 132.043 5.41504 132.152 6.1123ZM137.621 5.3877C137.298 5.04134 136.881 4.86816 136.37 4.86816C135.86 4.86816 135.436 5.04362 135.099 5.39453C134.761 5.74089 134.575 6.18978 134.538 6.74121H138.134C138.116 6.18522 137.945 5.73405 137.621 5.3877ZM138.127 8.8877H139.528C139.424 9.5485 139.086 10.0885 138.517 10.5078C137.947 10.9271 137.252 11.1367 136.432 11.1367C135.379 11.1367 134.549 10.8063 133.943 10.1455C133.342 9.48014 133.041 8.5778 133.041 7.43848C133.041 6.30827 133.342 5.39909 133.943 4.71094C134.549 4.02279 135.358 3.67871 136.37 3.67871C137.364 3.67871 138.152 4.00456 138.735 4.65625C139.319 5.30339 139.61 6.17383 139.61 7.26758V7.77344H134.531V7.8623C134.531 8.49121 134.707 8.99479 135.058 9.37305C135.409 9.7513 135.878 9.94043 136.466 9.94043C136.881 9.94043 137.236 9.84473 137.532 9.65332C137.828 9.46191 138.027 9.20671 138.127 8.8877ZM148.374 11V4.97754H145.188V11H143.719V3.80859H149.851V11H148.374ZM155.196 3.69238C156.112 3.69238 156.846 4.02734 157.397 4.69727C157.949 5.36719 158.225 6.26953 158.225 7.4043C158.225 8.53906 157.951 9.44368 157.404 10.1182C156.857 10.7881 156.131 11.123 155.224 11.123C154.713 11.123 154.26 11.0068 153.863 10.7744C153.471 10.542 153.171 10.223 152.961 9.81738H152.927V13.3789H151.45V3.80859H152.879V5.0459H152.906C153.12 4.62663 153.428 4.29622 153.829 4.05469C154.23 3.81315 154.686 3.69238 155.196 3.69238ZM154.807 9.87207C155.39 9.87207 155.853 9.65104 156.194 9.20898C156.536 8.76237 156.707 8.16081 156.707 7.4043C156.707 6.65234 156.536 6.05306 156.194 5.60645C155.853 5.15983 155.39 4.93652 154.807 4.93652C154.242 4.93652 153.786 5.16211 153.439 5.61328C153.093 6.06445 152.92 6.66146 152.92 7.4043C152.92 8.15169 153.091 8.75098 153.433 9.20215C153.779 9.64876 154.237 9.87207 154.807 9.87207ZM162.019 9.9541C162.538 9.9541 162.973 9.79688 163.324 9.48242C163.68 9.16341 163.857 8.77148 163.857 8.30664V7.73926L162.087 7.84863C161.645 7.88053 161.303 7.98991 161.062 8.17676C160.825 8.35905 160.706 8.60514 160.706 8.91504C160.706 9.22949 160.825 9.48242 161.062 9.67383C161.303 9.86068 161.622 9.9541 162.019 9.9541ZM161.608 11.123C160.902 11.123 160.326 10.9225 159.879 10.5215C159.437 10.1204 159.216 9.59863 159.216 8.95605C159.216 8.32715 159.448 7.82812 159.913 7.45898C160.378 7.08529 161.036 6.87565 161.889 6.83008L163.857 6.71387V6.16016C163.857 5.75911 163.73 5.44694 163.475 5.22363C163.219 4.99577 162.866 4.88184 162.415 4.88184C161.996 4.88184 161.654 4.97526 161.39 5.16211C161.13 5.34896 160.966 5.60645 160.897 5.93457H159.503C159.544 5.26921 159.831 4.72689 160.364 4.30762C160.897 3.88835 161.599 3.67871 162.47 3.67871C163.34 3.67871 164.033 3.8929 164.548 4.32129C165.067 4.74967 165.327 5.32389 165.327 6.04395V11H163.912V9.81738H163.878C163.673 10.2139 163.361 10.5306 162.941 10.7676C162.527 11.0046 162.082 11.123 161.608 11.123ZM169.846 4.88184H168.335V6.76855H169.702C170.536 6.76855 170.953 6.44954 170.953 5.81152C170.953 5.5153 170.857 5.28743 170.666 5.12793C170.475 4.96387 170.201 4.88184 169.846 4.88184ZM169.798 7.80078H168.335V9.92676H169.962C170.381 9.92676 170.7 9.83789 170.919 9.66016C171.138 9.47786 171.247 9.21354 171.247 8.86719C171.247 8.15625 170.764 7.80078 169.798 7.80078ZM166.879 11V3.80859H170.146C170.848 3.80859 171.397 3.97266 171.794 4.30078C172.195 4.62435 172.396 5.07096 172.396 5.64062C172.396 6.01432 172.277 6.35156 172.04 6.65234C171.808 6.94857 171.518 7.12858 171.172 7.19238V7.24707C171.637 7.31087 172.01 7.49544 172.293 7.80078C172.576 8.10156 172.717 8.47754 172.717 8.92871C172.717 9.56217 172.489 10.0658 172.033 10.4395C171.582 10.8132 170.967 11 170.188 11H166.879ZM176.552 9.9541C177.071 9.9541 177.507 9.79688 177.857 9.48242C178.213 9.16341 178.391 8.77148 178.391 8.30664V7.73926L176.62 7.84863C176.178 7.88053 175.836 7.98991 175.595 8.17676C175.358 8.35905 175.239 8.60514 175.239 8.91504C175.239 9.22949 175.358 9.48242 175.595 9.67383C175.836 9.86068 176.155 9.9541 176.552 9.9541ZM176.142 11.123C175.435 11.123 174.859 10.9225 174.412 10.5215C173.97 10.1204 173.749 9.59863 173.749 8.95605C173.749 8.32715 173.981 7.82812 174.446 7.45898C174.911 7.08529 175.57 6.87565 176.422 6.83008L178.391 6.71387V6.16016C178.391 5.75911 178.263 5.44694 178.008 5.22363C177.753 4.99577 177.399 4.88184 176.948 4.88184C176.529 4.88184 176.187 4.97526 175.923 5.16211C175.663 5.34896 175.499 5.60645 175.431 5.93457H174.036C174.077 5.26921 174.364 4.72689 174.897 4.30762C175.431 3.88835 176.132 3.67871 177.003 3.67871C177.873 3.67871 178.566 3.8929 179.081 4.32129C179.601 4.74967 179.86 5.32389 179.86 6.04395V11H178.445V9.81738H178.411C178.206 10.2139 177.894 10.5306 177.475 10.7676C177.06 11.0046 176.616 11.123 176.142 11.123ZM186.84 11.1367C185.997 11.1367 185.304 10.943 184.762 10.5557C184.224 10.1683 183.923 9.64421 183.859 8.9834H185.315C185.388 9.29329 185.557 9.53255 185.821 9.70117C186.086 9.86523 186.425 9.94727 186.84 9.94727C187.305 9.94727 187.665 9.84928 187.92 9.65332C188.18 9.45736 188.31 9.19759 188.31 8.87402C188.31 8.17676 187.822 7.82812 186.847 7.82812H185.794V6.74121H186.826C187.665 6.74121 188.084 6.42676 188.084 5.79785C188.084 5.51074 187.979 5.28288 187.77 5.11426C187.56 4.94108 187.252 4.85449 186.847 4.85449C186.45 4.85449 186.127 4.93424 185.876 5.09375C185.625 5.25326 185.475 5.47428 185.425 5.75684H184.01C184.087 5.11426 184.377 4.6084 184.878 4.23926C185.384 3.86556 186.038 3.67871 186.84 3.67871C187.697 3.67871 188.357 3.85645 188.822 4.21191C189.292 4.56283 189.526 5.04362 189.526 5.6543C189.526 6.02344 189.422 6.34928 189.212 6.63184C189.002 6.91439 188.724 7.09896 188.378 7.18555V7.24023C188.834 7.34505 189.18 7.53874 189.417 7.82129C189.659 8.10384 189.779 8.45247 189.779 8.86719C189.779 9.55078 189.51 10.0999 188.973 10.5146C188.439 10.9294 187.729 11.1367 186.84 11.1367ZM193.601 9.9541C194.12 9.9541 194.555 9.79688 194.906 9.48242C195.262 9.16341 195.439 8.77148 195.439 8.30664V7.73926L193.669 7.84863C193.227 7.88053 192.885 7.98991 192.644 8.17676C192.407 8.35905 192.288 8.60514 192.288 8.91504C192.288 9.22949 192.407 9.48242 192.644 9.67383C192.885 9.86068 193.204 9.9541 193.601 9.9541ZM193.19 11.123C192.484 11.123 191.908 10.9225 191.461 10.5215C191.019 10.1204 190.798 9.59863 190.798 8.95605C190.798 8.32715 191.03 7.82812 191.495 7.45898C191.96 7.08529 192.618 6.87565 193.471 6.83008L195.439 6.71387V6.16016C195.439 5.75911 195.312 5.44694 195.057 5.22363C194.801 4.99577 194.448 4.88184 193.997 4.88184C193.578 4.88184 193.236 4.97526 192.972 5.16211C192.712 5.34896 192.548 5.60645 192.479 5.93457H191.085C191.126 5.26921 191.413 4.72689 191.946 4.30762C192.479 3.88835 193.181 3.67871 194.052 3.67871C194.922 3.67871 195.615 3.8929 196.13 4.32129C196.649 4.74967 196.909 5.32389 196.909 6.04395V11H195.494V9.81738H195.46C195.255 10.2139 194.943 10.5306 194.523 10.7676C194.109 11.0046 193.664 11.123 193.19 11.123ZM208.797 12.8867H207.437V11H198.461V3.80859H199.931V9.83105H202.344V3.80859H203.813V9.83105H206.227V3.80859H207.696V9.83105H208.797V12.8867ZM211.265 11H209.809V3.80859H211.265V8.84668H211.319L214.642 3.80859H216.098V11H214.642V5.94824H214.587L211.265 11ZM228.02 12.8867H226.659V11H217.684V3.80859H219.153V9.83105H221.566V3.80859H223.036V9.83105H225.449V3.80859H226.919V9.83105H228.02V12.8867ZM233.297 5.3877C232.973 5.04134 232.556 4.86816 232.046 4.86816C231.535 4.86816 231.112 5.04362 230.774 5.39453C230.437 5.74089 230.25 6.18978 230.214 6.74121H233.81C233.791 6.18522 233.62 5.73405 233.297 5.3877ZM233.803 8.8877H235.204C235.099 9.5485 234.762 10.0885 234.192 10.5078C233.623 10.9271 232.928 11.1367 232.107 11.1367C231.055 11.1367 230.225 10.8063 229.619 10.1455C229.018 9.48014 228.717 8.5778 228.717 7.43848C228.717 6.30827 229.018 5.39909 229.619 4.71094C230.225 4.02279 231.034 3.67871 232.046 3.67871C233.039 3.67871 233.828 4.00456 234.411 4.65625C234.994 5.30339 235.286 6.17383 235.286 7.26758V7.77344H230.207V7.8623C230.207 8.49121 230.382 8.99479 230.733 9.37305C231.084 9.7513 231.554 9.94043 232.142 9.94043C232.556 9.94043 232.912 9.84473 233.208 9.65332C233.504 9.46191 233.702 9.20671 233.803 8.8877ZM241.274 11V7.86914H238.021V11H236.551V3.80859H238.021V6.70703H241.274V3.80859H242.744V11H241.274ZM250.749 11V3.80859H252.212V11H250.749ZM247.058 7.18555H245.813V9.83789H247.058C247.481 9.83789 247.819 9.71712 248.069 9.47559C248.325 9.22949 248.452 8.9082 248.452 8.51172C248.452 8.11068 248.325 7.78939 248.069 7.54785C247.814 7.30632 247.477 7.18555 247.058 7.18555ZM244.344 11V3.80859H245.813V6.03027H247.188C248.021 6.03027 248.685 6.25586 249.177 6.70703C249.674 7.15365 249.922 7.75521 249.922 8.51172C249.922 9.27279 249.674 9.87891 249.177 10.3301C248.685 10.7767 248.021 11 247.188 11H244.344ZM255.486 10.8154C255.313 10.9886 255.101 11.0752 254.851 11.0752C254.6 11.0752 254.388 10.9886 254.215 10.8154C254.042 10.6423 253.955 10.4303 253.955 10.1797C253.955 9.92904 254.042 9.71712 254.215 9.54395C254.388 9.37077 254.6 9.28418 254.851 9.28418C255.101 9.28418 255.313 9.37077 255.486 9.54395C255.66 9.71712 255.746 9.92904 255.746 10.1797C255.746 10.4303 255.66 10.6423 255.486 10.8154Z" fill="#16161F"/>
</svg>
