<svg width="28" height="18" viewBox="0 0 28 18" fill="none" xmlns="http://www.w3.org/2000/svg">
<path d="M2 10.5C2.82843 10.5 3.5 9.82843 3.5 9C3.5 8.17157 2.82843 7.5 2 7.5C1.17157 7.5 0.5 8.17157 0.5 9C0.5 9.82843 1.17157 10.5 2 10.5Z" fill="black"/>
<path d="M26.09 7.5H7.91C7.13128 7.5 6.5 8.13128 6.5 8.91V9.09C6.5 9.86872 7.13128 10.5 7.91 10.5H26.09C26.8687 10.5 27.5 9.86872 27.5 9.09V8.91C27.5 8.13128 26.8687 7.5 26.09 7.5Z" fill="black"/>
<path d="M26.09 15H1.91C1.13128 15 0.5 15.6313 0.5 16.41V16.59C0.5 17.3687 1.13128 18 1.91 18H26.09C26.8687 18 27.5 17.3687 27.5 16.59V16.41C27.5 15.6313 26.8687 15 26.09 15Z" fill="black"/>
<path d="M26.09 0H1.91C1.13128 0 0.5 0.631279 0.5 1.41V1.59C0.5 2.36872 1.13128 3 1.91 3H26.09C26.8687 3 27.5 2.36872 27.5 1.59V1.41C27.5 0.631279 26.8687 0 26.09 0Z" fill="black"/>
</svg>
