<svg width="72" height="67" viewBox="0 0 72 67" fill="none" xmlns="http://www.w3.org/2000/svg">
<path d="M46.7551 1.0402C43.9981 1.70554 42.6125 4.57702 43.0464 8.70915C43.2423 10.4951 43.9281 13.279 44.6838 15.3276L45.1876 16.6933L44.8797 19.3196C44.138 25.7629 42.6405 29.1772 39.0018 32.714L37.7982 33.8696L35.363 32.8716C28.2535 29.9476 20.7521 29.2122 12.8448 30.683C10.1577 31.1907 9.76586 31.3133 9.0521 31.9436C7.10677 33.6245 7.0228 37.4239 8.88416 39.3674C9.55593 40.0503 10.7315 40.488 11.5013 40.3479C11.8231 40.2954 12.9288 40.0853 13.9644 39.8927C19.5065 38.8597 25.1326 39.1398 30.1708 40.6981C33.7256 41.7837 36.8325 43.342 39.2957 45.233C41.5349 46.9488 41.7588 47.0714 42.7805 47.0714C43.5502 47.0714 43.8861 46.9664 44.6838 46.4761C45.2996 46.1084 45.7894 45.6707 46.0134 45.303C46.993 43.6046 50.1139 39.1398 51.9613 36.7586C54.2705 33.7996 56.2438 31.6109 58.791 29.1772L60.4424 27.6014L61.9399 27.3738C66.0964 26.7259 68.6715 25.5528 70.225 23.6093C72.6882 20.5452 72.1703 16.6407 68.7275 12.5786C67.5099 11.1254 65.2427 8.95428 65.1168 9.11186C65.0748 9.14688 64.9908 9.7772 64.9068 10.4951C64.8089 11.4406 64.5989 12.211 64.1511 13.314L63.5493 14.8548L64.1931 15.4851C65.2287 16.5182 66.1524 17.6913 66.6143 18.5142C67.0341 19.2671 67.0341 19.2846 66.7822 19.5472C65.9005 20.3702 63.9272 21.0355 60.6663 21.5783C60.1905 21.6483 59.5747 21.3332 55.0542 18.5492L49.988 15.4151L49.3442 13.6992C48.4765 11.388 47.8327 8.93677 47.7907 7.81619L47.7628 6.88821L48.2946 6.94074C48.5885 6.97576 49.2043 7.13334 49.6661 7.30843L50.4918 7.6411L50.6458 6.90572C50.8977 5.75013 51.4575 4.38442 52.1153 3.3689C52.4511 2.84363 52.731 2.38839 52.731 2.35338C52.731 2.1958 50.4358 1.33785 49.4002 1.11024C48.1966 0.830093 47.6228 0.812584 46.7551 1.0402Z" fill="white"/>
<path d="M56.1602 1.07494C52.3955 2.28306 50.1983 7.13306 51.3319 11.7204C52.2696 15.5724 55.4885 18.1287 58.6094 17.5334C61.2125 17.0257 63.3398 14.7495 64.0815 11.6679C64.4734 10.0921 64.4034 7.74588 63.9415 6.22259C63.2558 4.03397 61.5904 2.02043 59.869 1.30256C58.8753 0.899851 57.0699 0.794796 56.1602 1.07494Z" fill="white"/>
<path d="M14.3842 26.4103C11.6692 26.5854 9.82181 26.883 9.13605 27.2682C7.73653 28.0386 6.9668 29.5444 6.9668 31.5054C6.9668 32.1532 7.02278 32.731 7.09275 32.7836C7.16273 32.8361 7.37266 32.591 7.58258 32.2233C8.25435 31.0152 9.16404 30.3498 10.7175 29.9821C14.93 28.9666 20.78 28.5814 24.8106 29.0366C28.6593 29.4744 32.9838 30.5949 36.0768 31.9431C37.8681 32.7135 38.0921 32.6785 36.7765 31.8556C33.2497 29.5969 28.0855 27.6534 23.4951 26.8655C22.1516 26.6204 16.9873 26.1827 16.5535 26.2702C16.4835 26.2702 15.5039 26.3403 14.3842 26.4103Z" fill="white"/>
<path d="M56.4815 32.9064C54.8161 34.6223 50.5475 40.1551 48.3503 43.4818C47.1327 45.3028 45.9431 46.9486 45.6912 47.1237C45.4393 47.2813 45.1734 47.5439 45.0754 47.7015C44.9914 47.8591 44.8515 47.9466 44.7815 47.8766C44.7115 47.8241 44.3617 47.8941 43.9838 48.0342C42.5703 48.577 41.5066 48.2618 39.6453 46.791C37.8539 45.3553 35.0549 43.727 32.8016 42.7815C31.738 42.3438 30.8423 41.9936 30.8283 42.0286C30.7304 42.1512 24.9783 53.8297 24.9224 54.0223C24.8804 54.1799 27.5395 56.421 27.6234 56.2984C27.6374 56.2809 28.0993 55.3354 28.6591 54.2149C29.2049 53.0768 29.7087 52.1138 29.7787 52.0613C29.8767 51.9912 39.6733 59.4326 40.0372 59.8353C40.0931 59.9053 39.8272 60.8858 39.4494 62.0064C38.4137 65.0179 38.3717 64.6678 39.9252 65.8759C40.6669 66.4362 41.3247 66.8389 41.3807 66.7513C41.4367 66.6638 41.8145 65.5607 42.2344 64.3176C45.4673 54.4775 50.2256 44.0771 55.5438 35.2351C56.6074 33.4667 57.4471 32.0134 57.4192 32.0134C57.3912 32.0134 56.9713 32.4161 56.4815 32.9064ZM38.4837 47.7891C41.1288 49.8376 43.298 51.5185 43.326 51.536C43.382 51.5885 40.9608 57.7517 40.8769 57.7517C40.8349 57.7517 38.5397 56.0008 35.7686 53.8822L30.7584 50.0127L31.1362 49.1898C31.78 47.8416 33.6274 44.0947 33.6554 44.0947C33.6693 44.0947 35.8386 45.758 38.4837 47.7891Z" fill="white"/>
<path d="M0.850849 40.1376L0.458984 40.5578V50.9232V61.2885L0.850849 61.7087C1.06078 61.9363 1.39666 62.1289 1.59259 62.1289C1.88649 62.1289 1.92848 62.199 1.92848 62.8293V63.5297H3.81783H5.70717V62.8293V62.1289H9.34592H12.9847V62.8293V63.5297H14.874H16.7634V62.8293C16.7634 62.199 16.7914 62.1289 17.1272 62.1289C17.3372 62.1289 17.6591 61.9188 17.897 61.6212L18.3028 61.1134V50.9757C18.3028 45.4078 18.2468 40.7679 18.1909 40.6629C18.0649 40.4178 15.9656 40.6279 13.4325 41.1181C10.6895 41.6784 9.83575 41.5383 8.50621 40.3477L7.80645 39.7174H4.53158C1.25671 39.7174 1.24271 39.7174 0.850849 40.1376Z" fill="white"/>
</svg>
