<svg width="80" height="76" viewBox="0 0 80 76" fill="none" xmlns="http://www.w3.org/2000/svg">
<path d="M12.4127 1.22593C12.192 2.14113 10.941 3.13953 9.02771 3.63873C4.98041 4.88672 1.88974 8.63072 1.37463 12.7075C0.85952 17.2003 3.36149 21.1939 8.29184 23.8563L12.192 25.9363V35.6707C12.192 42.9923 11.9712 45.4883 11.3089 45.4883C10.1315 45.4883 5.71628 42.4931 3.50866 40.2467C2.25768 38.9155 1.66898 38.7491 1.00669 39.4979C0.417996 40.1635 0.417996 40.7459 1.15387 41.8275C2.55203 43.5747 9.32206 47.9843 10.7938 47.9843C11.4561 47.9843 12.192 48.7331 12.4127 49.6483C12.9278 51.8115 14.3996 51.8115 14.9147 49.7315C15.1355 48.8163 16.1657 47.9011 17.2695 47.5683C21.0224 46.6531 24.0395 43.9075 25.5849 39.9971C28.3076 33.0083 25.8792 27.4339 19.1828 25.0211L15.1355 23.5235V14.5379C15.1355 9.62912 15.2826 5.55232 15.4298 5.55232C16.46 5.55232 20.9489 7.79872 22.4206 9.04672C24.481 10.8771 25.4377 10.9603 25.4377 9.37952C25.4377 7.63233 21.9055 4.72032 18.3733 3.72193C16.3864 3.13953 15.1355 2.14113 14.9147 1.22593C14.6939 0.393927 14.1788 -0.271673 13.6637 -0.271673C13.1486 -0.271673 12.6335 0.393927 12.4127 1.22593ZM12.192 13.8723C12.192 19.1139 11.8976 22.1923 11.4561 22.1923C10.1315 22.1923 6.74651 19.9459 5.27476 18.1987C3.58225 15.9523 3.50866 10.9603 5.27476 8.79712C6.30498 7.46592 9.39565 5.96833 11.6769 5.63553C11.9712 5.55233 12.192 9.29632 12.192 13.8723ZM21.5376 29.2643C26.4679 32.9251 24.6282 41.2451 18.1525 44.3235C16.828 44.9891 15.577 45.4883 15.4298 45.4883C15.2826 45.4883 15.1355 41.2451 15.1355 36.0035V26.4355L17.4167 27.1843C18.6677 27.6003 20.5073 28.5155 21.5376 29.2643Z" fill="white"/>
<path d="M36.159 3.47236C31.8174 5.21956 30.272 7.38275 29.8305 12.458L29.4626 16.7844L25.2681 17.034C22.1038 17.2004 21 17.6164 21 18.4484C21 19.53 24.753 19.6964 46.6084 19.6964C65.6676 19.6964 72.5848 19.946 73.9829 20.778C76.1906 22.026 77.5887 26.1028 77.5887 31.5108L77.6623 35.5044H64.0486H50.435V33.4244C50.435 30.762 48.5217 29.6804 43.8121 29.6804C39.1761 29.6804 37.1893 30.762 37.1893 33.4244C37.1893 35.1716 36.8213 35.4212 34.0986 35.6708C29.6833 36.0036 29.6833 38.3332 34.0986 38.666L37.1893 38.9156V42.9092C37.1893 45.0724 37.5572 47.2356 38.0723 47.818C39.2497 49.1492 48.3745 49.1492 49.5519 47.818C50.067 47.2356 50.435 44.9892 50.435 42.826V38.8324H64.0486H77.6623V50.6468C77.6623 63.626 76.9264 68.618 75.0132 70.1988C73.9829 71.0308 66.845 71.2804 43.6649 71.2804C14.8923 71.2804 13.5677 71.1972 12.2431 69.6996C10.7714 68.0356 10.1091 65.29 9.81476 59.3828C9.44682 54.3076 8.12225 55.4724 7.90149 61.0468C7.68072 67.2036 8.93171 70.6148 12.3903 72.9444C14.5979 74.5252 16.2904 74.6084 43.297 74.6084C74.866 74.6084 75.6754 74.5252 78.3982 69.45C79.7963 66.8708 79.8699 65.6228 79.7227 44.8228L79.502 22.858L76.7793 20.0292L73.9829 17.2004H66.3298H58.7504L58.2352 14.6212C58.0145 13.2068 57.7937 11.21 57.7937 10.1284C57.7937 7.88196 55.3653 5.21956 51.7596 3.47236C48.3745 1.89156 40.0592 1.89156 36.159 3.47236ZM52.4954 6.71716C55.071 8.21476 55.5861 9.46276 55.5861 13.9556V17.2004H43.8121H32.0381V13.9556C32.0381 9.96196 34.2458 6.80035 37.9251 5.63556C41.3101 4.47076 49.7727 5.13636 52.4954 6.71716ZM47.05 32.6756C48.0066 33.0916 48.2274 34.506 48.2274 39.7476V46.3204H43.8121H39.3969V39.7476C39.3969 35.2548 39.6912 33.0084 40.3535 32.7588C41.6781 32.0932 45.7254 32.0932 47.05 32.6756Z" fill="white" stroke="white"/>
</svg>
