<svg width="70" height="73" viewBox="0 0 70 73" fill="none" xmlns="http://www.w3.org/2000/svg">
<path d="M15.4165 0.373137C15.3532 0.606631 15.2584 1.17369 15.1952 1.64068L15.1003 2.47458L7.82896 2.64136L0.557617 2.80814L0.620846 6.64412C0.652461 11.1139 1.18991 13.9825 2.70741 18.2521C4.19329 22.4883 6.43792 26.2576 9.37808 29.5599C12.4131 32.9622 14.7209 34.8635 18.0088 36.7315C19.3683 37.4987 21.3916 39.0331 22.5297 40.1338C23.6679 41.2679 25.2486 42.6022 26.0706 43.1692C27.4932 44.1366 27.5564 44.2033 27.3984 45.5042C27.1771 47.3721 28.0939 48.8398 29.8011 49.3735C30.9392 49.7404 31.0657 49.8738 31.0657 50.9079V52.0087H26.1022C20.4748 52.0087 19.4631 52.3089 18.1985 54.3102C17.5346 55.3443 17.4714 55.8113 17.4714 60.2143C17.4714 64.9842 17.4714 65.0176 16.7759 65.0176C15.3532 65.0176 15.2268 65.3512 15.3216 69.2205L15.4165 72.8563H35.0175H54.6185L54.7133 69.2205C54.8082 65.3512 54.6817 65.0176 53.2907 65.0176C52.6268 65.0176 52.6268 64.8842 52.5003 60.0809C52.4055 55.6445 52.3422 55.0774 51.71 54.1435C50.4454 52.3089 49.4021 52.0087 43.9012 52.0087H38.9693V50.9079C38.9693 49.8738 39.0957 49.7404 40.2339 49.3735C41.9411 48.8398 42.8579 47.3721 42.6366 45.5042C42.4785 44.2033 42.5417 44.1366 43.9644 43.1692C44.7864 42.6022 46.3671 41.2679 47.5052 40.1338C48.6433 38.9997 50.1925 37.7322 50.9828 37.3319C56.1044 34.63 61.9215 28.9928 64.7035 24.0561C67.7701 18.619 69.3825 12.6149 69.4457 6.47734L69.4773 2.80814L62.206 2.64136L54.9346 2.47458L54.7766 1.30711L54.6185 0.139643L35.0807 0.039574C19.6212 -0.0271385 15.5429 0.039574 15.4165 0.373137ZM52.8797 13.5489C52.8797 26.6579 52.7532 27.7253 50.6667 32.1617C48.9595 35.7308 46.5568 38.7996 43.7431 40.901L41.4352 42.6689H35.0491H28.6313L26.7661 41.3013C23.2569 38.7329 20.8225 35.6307 19.0521 31.5279C17.2817 27.4584 17.1553 26.2576 17.1553 13.5489V1.97424H35.0175H52.8797V13.5489ZM15.2584 5.81021V6.97768L10.1368 7.04439L4.98365 7.14446L4.88881 8.47871C4.82558 9.17919 5.0785 11.2139 5.45787 12.9151C6.72245 18.7191 10.5162 25.3236 14.7525 29.1596C15.9539 30.227 16.9023 31.4612 17.503 32.7287C18.0088 33.7961 18.3566 34.6634 18.2618 34.6634C17.7559 34.6634 13.9306 31.628 12.1285 29.8601C5.99532 23.6892 2.29642 14.8164 2.29642 6.2772V4.64274H8.7774H15.2584V5.81021ZM67.7385 6.2772C67.7385 12.815 65.1461 20.6871 61.3208 25.8907C58.9813 29.0929 54.9663 32.8621 52.5319 34.163L51.6467 34.6634L52.5635 32.6287C53.2275 31.1276 53.9862 30.1269 55.3772 28.8594C59.0761 25.5905 62.8067 19.553 64.1029 14.8498C64.9881 11.6142 65.5255 7.8783 65.1461 7.41131C64.9248 7.1111 63.3441 6.97768 59.8665 6.91097L54.9346 6.8109L54.8398 5.71014L54.7449 4.64274H61.2259H67.7385V6.2772ZM15.3216 17.8852C15.3848 22.8219 15.3848 26.8914 15.3532 26.9581C15.2268 27.1582 13.1718 24.7566 11.7808 22.8219C9.53615 19.7198 7.41797 14.4495 6.88053 10.5468L6.65922 8.97906H10.9272H15.2268L15.3216 17.8852ZM63.186 10.5468C62.4905 15.6837 59.2658 22.2882 55.725 25.824L54.3656 27.1582L54.5869 26.0241C54.6817 25.4237 54.7766 21.3209 54.7766 16.9512V8.97906H59.0761H63.3757L63.186 10.5468ZM40.3603 44.8704C41.0875 45.1706 41.0242 46.9051 40.2655 47.3388C39.9177 47.5056 37.6099 47.6723 35.0175 47.6723C32.4251 47.6723 30.1172 47.5056 29.7695 47.3388C29.0739 46.9385 28.9159 45.1706 29.5798 44.9038C30.1488 44.6369 39.7597 44.6369 40.3603 44.8704ZM37.3886 50.8412V52.0087H35.0175H32.6464V50.8412V49.6737H35.0175H37.3886V50.8412ZM49.8763 54.8439C50.6351 55.6111 50.6667 55.8113 50.6667 60.3477V65.0176H35.0175H19.3683V60.3477C19.3683 55.8113 19.3999 55.6111 20.1586 54.8439L20.9174 54.01H35.0175H49.1176L49.8763 54.8439ZM52.8797 69.0204V71.0217H35.0175H17.1553V69.0204V67.019H35.0175H52.8797V69.0204Z" fill="white"/>
<path d="M33.9422 8.37877C33.5944 8.97918 32.9937 10.2467 32.646 11.1807C31.9188 13.082 31.9188 13.082 28.2832 13.5156C26.0385 13.7825 25.1849 14.3495 25.6908 15.3169C25.8488 15.6504 26.8605 16.7178 27.9038 17.7185L29.8007 19.4864L29.2948 22.4218C28.5045 26.8915 28.8522 27.125 32.646 24.9568L34.9854 23.5892L37.4198 24.9568C41.2135 27.0916 41.5297 26.8915 40.7393 22.4551L40.2335 19.5865L42.4781 17.3516C45.5447 14.2828 45.4499 14.0493 40.5496 13.3155C39.2534 13.1154 38.1469 12.8485 38.0837 12.7151C37.1036 10.2801 35.5229 7.4448 35.1119 7.37808C34.7641 7.31137 34.3215 7.67829 33.9422 8.37877ZM37.1668 14.7165C37.3565 14.8499 38.4314 15.05 39.5379 15.1834L41.5613 15.4169L39.9173 17.1515L38.2734 18.9194L38.6211 21.0208C38.8108 22.1549 38.9056 23.1556 38.8424 23.2557C38.7792 23.3224 37.9888 22.9888 37.1036 22.5218C36.2184 22.0548 35.3016 21.6546 35.0171 21.6546C34.7325 21.6546 33.8157 22.0548 32.9305 22.5218C32.0453 22.9888 31.2549 23.3224 31.1917 23.2557C31.1285 23.1556 31.2233 22.1549 31.413 21.0208L31.7608 18.9194L30.1168 17.1515L28.4728 15.4169L30.4329 15.1834C31.5078 15.05 32.5511 14.8832 32.7724 14.7832C32.9937 14.6831 33.5944 13.7158 34.0686 12.615L34.9854 10.6136L35.9023 12.5483C36.4081 13.6157 37.0088 14.583 37.1668 14.7165Z" fill="white"/>
</svg>
