<svg width="21" height="27" viewBox="0 0 21 27" fill="none" xmlns="http://www.w3.org/2000/svg">
<path d="M13.5786 26.4965C13.3575 26.4404 13.1439 26.3607 12.9414 26.2589C9.07155 24.3737 5.85443 21.4222 3.66033 17.7443C1.53273 14.0762 0.542878 9.83698 0.810535 5.53966C0.849933 5.0056 1.02677 4.48584 1.32402 4.03038C1.62127 3.57493 2.02895 3.19911 2.50781 2.93908L5.86737 1.05946C6.03832 0.965721 6.22601 0.908178 6.41819 0.890587C6.61037 0.872996 6.80272 0.895752 6.98269 0.957372C7.16814 1.02532 7.33493 1.13333 7.47134 1.27382C7.60775 1.41431 7.71046 1.58386 7.77226 1.77055L9.66507 7.47053C9.73423 7.69063 9.72963 7.92942 9.65195 8.15178C9.57427 8.37414 9.4276 8.56832 9.23354 8.70574L7.015 10.2705C7.25449 11.8949 7.80796 13.4476 8.64525 14.844C9.46357 16.2787 10.5568 17.5346 11.8659 18.5437L14.379 17.4276C14.5899 17.3345 14.8221 17.3064 15.0447 17.3471C15.2674 17.3878 15.4699 17.4953 15.6255 17.6553L19.6705 22.1204C19.8117 22.2652 19.917 22.441 19.9785 22.6347C20.0399 22.8283 20.0559 23.0348 20.0253 23.2387C19.9947 23.4426 19.9183 23.6385 19.8017 23.8118C19.6852 23.9852 19.5316 24.1314 19.3524 24.2396L16.0567 26.1423C15.6819 26.36 15.27 26.5033 14.8447 26.5641C14.4194 26.6249 13.9891 26.6019 13.5786 26.4965ZM6.50314 2.2371L3.14358 4.11672C2.87455 4.26175 2.64575 4.47258 2.47968 4.72847C2.31362 4.98436 2.216 5.27649 2.19645 5.57614C1.93763 9.60668 2.8576 13.585 4.84519 17.0304C6.91021 20.4908 9.93795 23.2673 13.5798 25.0402C13.8552 25.1752 14.1625 25.2389 14.474 25.2257C14.7855 25.2125 15.0915 25.1228 15.3645 24.9646L18.6602 23.0619L14.7541 18.7519L12.0537 19.9555C11.9505 20.0011 11.8384 20.0214 11.7273 20.0145C11.6162 20.0076 11.5094 19.9737 11.4163 19.9158C9.78473 18.7841 8.43775 17.2994 7.47166 15.5679C6.43918 13.8928 5.80912 11.9946 5.62847 10.0147C5.63026 9.89802 5.66224 9.78274 5.72135 9.67992C5.78045 9.5771 5.86469 9.49022 5.96595 9.42762L8.35298 7.74246L6.50314 2.2371Z" fill="white"/>
</svg>
